# xmcd CD database file
#
# Track frame offsets:
#	150
#	20112
#	35425
#
# Disc length: 664 seconds
#
# Revision: 0
# Processed by: cddbd v1.5PL3 Copyright (c) Steve Scherf et al.
# Submitted via: CDex 1.50beta8
#
DISCID=1f029603
DTITLE=Psycho le Cemu - 激愛メリーゴーランド
DYEAR=1900
DGENRE=JPop
TTITLE0=激愛メリーゴーランド
TTITLE1=『LONG★DISTANCE』
TTITLE2=春夏秋冬
EXTD=
EXTT0=
EXTT1=
EXTT2=
PLAYORDER=
